<svg width="101" height="89" viewBox="0 0 101 89" fill="none" xmlns="http://www.w3.org/2000/svg">
<path d="M83.9639 20.9995L59.5408 45.4226L47.9751 56.9883C47.1604 57.803 45.827 57.7679 45.1308 56.8499C39.2608 49.1097 32.8711 33.0984 46.4725 19.4969C60.074 5.89549 76.0853 12.2852 83.8255 18.1552C84.7435 18.8514 84.7786 20.1848 83.9639 20.9995Z" fill="#F7FFFB"/>
<path d="M32 14.1249L32 54.5512L32 73.8751C32 75.0273 31.0279 75.9446 29.885 75.7986C18.7525 74.376 -4.13206e-07 66.547 -1.39876e-06 44C-2.38432e-06 21.453 18.7525 13.624 29.885 12.2014C31.0279 12.0554 32 12.9727 32 14.1249Z" fill="#F7FFFB"/>
<path d="M43.5527 67.5016L63.041 48.0133L79.5415 31.5128C80.3562 30.6981 81.6896 30.7332 82.3858 31.6512C88.2558 39.3914 94.6455 55.4027 81.0441 69.0042C67.4426 82.6056 51.4313 76.2159 43.6911 70.3459C42.7731 69.6497 42.738 68.3163 43.5527 67.5016Z" fill="#F7FFFB"/>
</svg>
