<svg width="74" height="67" viewBox="0 0 74 67" fill="none" xmlns="http://www.w3.org/2000/svg">
<path d="M26.4686 10.582L26.4686 30.2917C26.4686 31.3963 25.5732 32.2917 24.4686 32.2917L2 32.2917C0.895428 32.2917 -0.00904626 31.3892 0.0762645 30.2879C1.24216 15.2375 15.5081 9.77821 24.3708 8.66191C25.5091 8.51852 26.4686 9.43466 26.4686 10.582Z" fill="#F7FAFF"/>
<path d="M26.4686 56.6483L26.4686 36.9386C26.4686 35.834 25.5732 34.9386 24.4686 34.9386L2 34.9386C0.895428 34.9386 -0.00904626 35.8412 0.0762645 36.9424C1.24216 51.9929 15.5081 57.4521 24.3708 58.5684C25.5091 58.7118 26.4686 57.7957 26.4686 56.6483Z" fill="#F7FAFF"/>
<path d="M63.4606 15.7457L46.0236 33.1827L37.9793 41.227C37.1646 42.0417 35.8282 42.0034 35.155 41.0683C30.9711 35.2572 26.804 23.916 36.4768 14.2431C46.1496 4.5703 57.4908 8.73745 63.302 12.9213C64.237 13.5945 64.2753 14.931 63.4606 15.7457Z" fill="#F7FAFF"/>
<path d="M31.8263 51.2543L45.6584 37.4223L57.3077 25.773C58.1224 24.9583 59.4588 24.9966 60.132 25.9317C64.3159 31.7428 68.483 43.084 58.8102 52.7569C49.1373 62.4297 37.7962 58.2625 31.985 54.0787C31.05 53.4055 31.0117 52.069 31.8263 51.2543Z" fill="#F7FAFF"/>
</svg>
