<svg width="101" height="91" viewBox="0 0 101 91" fill="none" xmlns="http://www.w3.org/2000/svg">
<path d="M83.9639 20.9995L59.5408 45.4226L47.9751 56.9883C47.1604 57.803 45.827 57.7679 45.1308 56.8499C39.2608 49.1097 32.8711 33.0984 46.4725 19.4969C60.074 5.89549 76.0853 12.2852 83.8255 18.1552C84.7435 18.8514 84.7786 20.1848 83.9639 20.9995Z" fill="#F7FFFB"/>
<path d="M32 15.1249L32 55.5512L32 74.8751C32 76.0273 31.0279 76.9446 29.885 76.7986C18.7525 75.376 -4.13206e-07 67.547 -1.39876e-06 45C-2.38432e-06 22.453 18.7525 14.624 29.885 13.2014C31.0279 13.0554 32 13.9727 32 15.1249Z" fill="#F7FFFB"/>
<path d="M43.5527 69.5016L63.041 50.0133L79.5415 33.5128C80.3562 32.6981 81.6896 32.7332 82.3858 33.6512C88.2558 41.3914 94.6455 57.4027 81.0441 71.0042C67.4426 84.6056 51.4313 78.2159 43.6911 72.3459C42.7731 71.6497 42.738 70.3163 43.5527 69.5016Z" fill="#F7FFFB"/>
</svg>
